<svg width="960" height="540" xmlns="http://www.w3.org/2000/svg" xmlns:xlink="http://www.w3.org/1999/xlink" overflow="hidden"><g><rect x="0" y="0" width="960" height="540" fill="#FFFFFF"/><path d="M0.000125063-0.833333 15.523-0.831004 30.5585-0.824421 44.6187-0.814194 51.1308-0.807904 57.2161-0.800931 62.8139-0.793352 67.8631-0.785242 72.3028-0.776678 76.0721-0.767735 79.1102-0.75849 81.3563-0.749017 82.7503-0.739385 83.239-0.72954 83.7165-0.719828 85.0971-0.710348 87.3399-0.700882 90.3765-0.691637 94.1449-0.682694 98.584-0.674131 103.633-0.666025 109.23-0.658451 115.315-0.651484 121.827-0.645201 135.887-0.634987 150.922-0.628414 159.778-0.627088 159.777 1.03958 150.921 1.03825 135.885 1.03168 121.825 1.02147 115.313 1.01518 109.228 1.00821 103.63 1.00064 98.5808 0.992532 94.1409 0.983968 90.3714 0.975022 87.3329 0.96577 85.0855 0.956278 83.6826 0.946494 83.2051 0.936784 82.7388 0.927242 81.3493 0.917635 79.1051 0.908169 76.0682 0.898926 72.2996 0.889985 67.8604 0.881422 62.8116 0.873313 57.2142 0.865734 51.1291 0.858762 44.6175 0.852472 30.5577 0.842246 15.5227 0.835663-0.000125063 0.833333ZM158.445-3.79395 166.444 0.207244 158.443 4.20605Z" transform="matrix(1.83697e-16 1 1 -1.83697e-16 466 231)"/><path d="M674.5 87.0001C674.5 82.8579 680.992 79.5001 689 79.5001 697.008 79.5001 703.5 82.8579 703.5 87.0001 703.5 91.1422 697.008 94.5001 689 94.5001 680.992 94.5001 674.5 91.1422 674.5 87.0001Z" stroke="#000000" stroke-width="1.33333" stroke-linejoin="round" stroke-miterlimit="10" fill="#FFFFFF" fill-rule="evenodd"/><text font-family="Calibri,Calibri_MSFontService,sans-serif" font-weight="400" font-size="13" transform="translate(715.874 93)">Singleton resource</text><text font-family="Calibri,Calibri_MSFontService,sans-serif" font-weight="400" font-size="13" transform="translate(715.874 73)">Collection resource</text><path d="M674.5 69.0001C674.5 64.8579 680.992 61.5001 689 61.5001 697.008 61.5001 703.5 64.8579 703.5 69.0001 703.5 73.1422 697.008 76.5001 689 76.5001 680.992 76.5001 674.5 73.1422 674.5 69.0001Z" stroke="#000000" stroke-width="1.33333" stroke-linejoin="round" stroke-miterlimit="10" fill="#99CCFF" fill-rule="evenodd"/><path d="M219.5 79.5001C219.5 68.4544 241.886 59.5001 269.5 59.5001 297.114 59.5001 319.5 68.4544 319.5 79.5001 319.5 90.5457 297.114 99.5001 269.5 99.5001 241.886 99.5001 219.5 90.5457 219.5 79.5001Z" stroke="#000000" stroke-linejoin="round" stroke-miterlimit="10" fill="#99CCFF" fill-rule="evenodd"/><text font-family="Calibri,Calibri_MSFontService,sans-serif" font-weight="400" font-size="13" transform="translate(246.808 83)">Systems</text><path d="M493.5 80.0001C493.5 68.6782 516.11 59.5001 544 59.5001 571.89 59.5001 594.5 68.6782 594.5 80.0001 594.5 91.3219 571.89 100.5 544 100.5 516.11 100.5 493.5 91.3219 493.5 80.0001Z" stroke="#000000" stroke-linejoin="round" stroke-miterlimit="10" fill="#99CCFF" fill-rule="evenodd"/><text font-family="Calibri,Calibri_MSFontService,sans-serif" font-weight="400" font-size="13" transform="translate(523.869 84)">Chassis</text><path d="M504.5 108.5C504.5 101.32 522.185 95.5001 544 95.5001 565.815 95.5001 583.5 101.32 583.5 108.5 583.5 115.68 565.815 121.5 544 121.5 522.185 121.5 504.5 115.68 504.5 108.5Z" stroke="#000000" stroke-linejoin="round" stroke-miterlimit="10" fill="#FFFFFF" fill-rule="evenodd"/><text font-family="Calibri,Calibri_MSFontService,sans-serif" font-weight="400" font-size="13" transform="translate(536.369 112)">C1</text><path d="M381.5 184.5C381.5 172.902 418.66 163.5 464.5 163.5 510.34 163.5 547.5 172.902 547.5 184.5 547.5 196.098 510.34 205.5 464.5 205.5 418.66 205.5 381.5 196.098 381.5 184.5Z" stroke="#000000" stroke-linejoin="round" stroke-miterlimit="10" fill="#99CCFF" fill-rule="evenodd"/><text font-family="Calibri,Calibri_MSFontService,sans-serif" font-weight="400" font-size="13" transform="translate(415.742 188)">NetworkAdapters</text><path d="M341.5 270C341.5 255.365 368.139 243.5 401 243.5 433.861 243.5 460.5 255.365 460.5 270 460.5 284.636 433.861 296.5 401 296.5 368.139 296.5 341.5 284.636 341.5 270Z" stroke="#000000" stroke-linejoin="round" stroke-miterlimit="10" fill="#99CCFF" fill-rule="evenodd"/><text font-family="Calibri,Calibri_MSFontService,sans-serif" font-weight="400" font-size="13" transform="translate(377.056 258)">Network</text><text font-family="Calibri,Calibri_MSFontService,sans-serif" font-weight="400" font-size="13" transform="translate(382.476 274)">Device</text><text font-family="Calibri,Calibri_MSFontService,sans-serif" font-weight="400" font-size="13" transform="translate(374.309 290)">Functions</text><path d="M545.451 121.654 545.223 123.614C545.212 123.709 545.191 123.802 545.16 123.892L544.494 125.836C544.468 125.912 544.435 125.986 544.395 126.057L543.321 127.97C543.289 128.028 543.252 128.084 543.211 128.136L541.758 130.004C541.709 130.066 541.656 130.123 541.598 130.176L537.671 133.712C537.612 133.765 537.549 133.812 537.483 133.853L532.389 137.021 526.2 139.785 519.324 141.906 511.982 143.271 504.398 143.76 496.972 144.23 489.937 145.539 483.359 147.567 477.483 150.189 472.553 153.27 472.741 153.129 468.814 156.665 469.112 156.275 468.324 157.836 465.943 156.634 466.731 155.073C466.806 154.926 466.907 154.794 467.029 154.683L470.956 151.147C471.015 151.095 471.078 151.048 471.144 151.006L476.4 147.752 482.577 145.018 489.452 142.917 496.803 141.569 504.229 141.099 511.497 140.648 518.541 139.356 525.117 137.348 530.981 134.757 536.074 131.589 535.886 131.73 539.813 128.194 539.653 128.366 541.106 126.499 540.996 126.665 542.07 124.751 541.971 124.972 542.637 123.028 542.574 123.305 542.802 121.346ZM471.335 157.59 464.5 163.359 463.986 154.43Z"/><path d="M440.685 226.849 440.259 228.419C440.212 228.593 440.13 228.756 440.018 228.897L438.815 230.418C438.746 230.506 438.666 230.584 438.577 230.652L436.708 232.074C436.649 232.119 436.587 232.159 436.521 232.193L434.097 233.467 431.077 234.612 427.742 235.485 424.189 236.046 420.52 236.249 416.986 236.438 413.697 236.958 410.625 237.762 407.89 238.796 408.311 238.541 407.109 239.619 405.329 237.633 406.532 236.555C406.655 236.445 406.798 236.358 406.953 236.3L409.955 235.181 413.286 234.324 416.843 233.775 420.378 233.586 423.778 233.411 427.072 232.904 430.14 232.116 432.856 231.107 435.28 229.833 435.093 229.952 436.962 228.53 436.724 228.764 437.927 227.243 437.686 227.721 438.111 226.151ZM409.988 240.515 401.5 243.335 404.337 234.853Z"/><path d="M229.5 111C229.5 103.544 247.409 97.5001 269.5 97.5001 291.591 97.5001 309.5 103.544 309.5 111 309.5 118.456 291.591 124.5 269.5 124.5 247.409 124.5 229.5 118.456 229.5 111Z" stroke="#000000" stroke-linejoin="round" stroke-miterlimit="10" fill="#FFFFFF" fill-rule="evenodd"/><text font-family="Calibri,Calibri_MSFontService,sans-serif" font-weight="400" font-size="13" transform="translate(262.474 114)">S1</text><path d="M427.5 216C427.5 207.44 444.737 200.5 466 200.5 487.263 200.5 504.5 207.44 504.5 216 504.5 224.56 487.263 231.5 466 231.5 444.737 231.5 427.5 224.56 427.5 216Z" stroke="#000000" stroke-linejoin="round" stroke-miterlimit="10" fill="#FFFFFF" fill-rule="evenodd"/><text font-family="Calibri,Calibri_MSFontService,sans-serif" font-weight="400" font-size="13" transform="translate(453.92 219)">NA</text><text font-family="Calibri,Calibri_MSFontService,sans-serif" font-weight="400" font-size="13" transform="translate(470.254 219)">1</text><path d="M367.5 308C367.5 299.44 383.394 292.5 403 292.5 422.606 292.5 438.5 299.44 438.5 308 438.5 316.56 422.606 323.5 403 323.5 383.394 323.5 367.5 316.56 367.5 308Z" stroke="#000000" stroke-linejoin="round" stroke-miterlimit="10" fill="#FFFFFF" fill-rule="evenodd"/><text font-family="Calibri,Calibri_MSFontService,sans-serif" font-weight="400" font-size="13" transform="translate(387.683 311)">NDF</text><text font-family="Calibri,Calibri_MSFontService,sans-serif" font-weight="400" font-size="13" transform="translate(410.683 311)">1</text><path d="M495.5 264C495.5 256.544 512.961 250.5 534.5 250.5 556.039 250.5 573.5 256.544 573.5 264 573.5 271.456 556.039 277.5 534.5 277.5 512.961 277.5 495.5 271.456 495.5 264Z" stroke="#000000" stroke-linejoin="round" stroke-miterlimit="10" fill="#99CCFF" fill-rule="evenodd"/><text font-family="Calibri,Calibri_MSFontService,sans-serif" font-weight="400" font-size="13" transform="translate(519.651 267)">Ports</text><path d="M506.5 288C506.5 279.44 519.036 272.5 534.5 272.5 549.964 272.5 562.5 279.44 562.5 288 562.5 296.56 549.964 303.5 534.5 303.5 519.036 303.5 506.5 296.56 506.5 288Z" stroke="#000000" stroke-linejoin="round" stroke-miterlimit="10" fill="#FFFFFF" fill-rule="evenodd"/><text font-family="Calibri,Calibri_MSFontService,sans-serif" font-weight="400" font-size="13" transform="translate(524.651 292)">Pt</text><text font-family="Calibri,Calibri_MSFontService,sans-serif" font-weight="400" font-size="13" transform="translate(535.984 292)">1</text><path d="M0.270351-1.30564 2.50405-0.843118C2.65207-0.812468 2.79381-0.75687 2.92318-0.678705L5.08672 0.628416C5.17961 0.684539 5.26528 0.751771 5.34187 0.828663L7.36507 2.85973C7.4218 2.91668 7.47328 2.97866 7.51885 3.04489L9.33154 5.67924C9.3683 5.73266 9.40113 5.78872 9.42973 5.84692L10.9617 8.96389 12.2089 12.6023 13.0128 16.4843 13.3055 20.499 13.5745 24.34 14.3109 27.8864 15.4483 31.2037 16.9144 34.1612 16.7041 33.8521 19.3083 36.7151 17.3356 38.5094 14.7314 35.6465C14.6472 35.5539 14.5764 35.4498 14.5212 35.3374L12.9232 32.061 11.6982 28.4203 10.9144 24.5262 10.6454 20.6853 10.4001 17.0182 9.68377 13.4596 8.56853 10.1402 7.03652 7.0232 7.13471 7.19087 5.32202 4.55652 5.4758 4.74168 3.4526 2.71062 3.70776 2.91086 1.54422 1.60374 1.96335 1.76816-0.270351 1.30564ZM19.3394 33.5205 23.9509 41.1844 15.0529 40.2752Z" transform="matrix(1.83697e-16 1 1 -1.83697e-16 493.5 226.5)"/><path d="M6.77883-0.996322 12.4938-0.478064 17.456 0.367837 17.0057 2.99621 12.253 2.1777 6.538 1.65945ZM25.3965 2.45291 27.9155 3.32753 31.4007 5.06647C31.4921 5.11243 31.578 5.16882 31.6566 5.23442L33.7956 7.02098C33.9066 7.11368 34.0018 7.22384 34.0774 7.3471L34.6409 8.26573C34.7212 8.39652 34.7782 8.54021 34.8096 8.69041L34.8945 9.0972 32.2842 9.64227 32.1992 9.23549 32.3679 9.66017 31.8043 8.74154 32.0861 9.06767 29.9471 7.28111 30.203 7.44907 27.0408 5.84666 24.5218 4.97204ZM39.5684 13.5228 40.5162 13.9992 44.6656 15.4278 49.4435 16.6071 48.8015 19.1954 43.7909 17.9469 39.3185 16.3818 38.3708 15.9054ZM57.1455 17.7816 60.8575 18.1182 60.6167 20.774 56.9047 20.4373ZM7.79116 4.39293 0 0 8.18904-3.59717ZM59.6043 15.3847 67.3955 19.7776 59.2064 23.3748Z" transform="matrix(-1 1.22465e-16 1.22465e-16 1 505.896 288.5)"/><path d="M270.385 124.505 270.361 131.574 270.334 134.834 270.299 137.753 270.257 140.223 270.21 142.132 270.159 143.375 270.1 143.911 270.048 144.343 270.007 145.462 269.961 147.34 269.919 149.793 269.884 152.701 269.86 156.349 267.193 156.331 267.218 152.668 267.253 149.748 267.295 147.274 267.342 145.354 267.4 144.029 267.452 143.596 267.495 143.267 267.544 142.066 267.59 140.177 267.632 137.721 267.667 134.811 267.695 131.565 267.718 124.496ZM272.531 155.023 268.5 163.007 264.532 154.991Z"/><path d="M180.5 183.5C180.5 171.902 220.123 162.5 269 162.5 317.877 162.5 357.5 171.902 357.5 183.5 357.5 195.098 317.877 204.5 269 204.5 220.123 204.5 180.5 195.098 180.5 183.5Z" stroke="#000000" stroke-linejoin="round" stroke-miterlimit="10" fill="#99CCFF" fill-rule="evenodd"/><text font-family="Calibri,Calibri_MSFontService,sans-serif" font-weight="400" font-size="13" transform="translate(217.673 187)">EthernetInterfaces</text><path d="M238.5 216C238.5 207.44 254.394 200.5 274 200.5 293.606 200.5 309.5 207.44 309.5 216 309.5 224.56 293.606 231.5 274 231.5 254.394 231.5 238.5 224.56 238.5 216Z" stroke="#000000" stroke-linejoin="round" stroke-miterlimit="10" fill="#FFFFFF" fill-rule="evenodd"/><text font-family="Calibri,Calibri_MSFontService,sans-serif" font-weight="400" font-size="13" transform="translate(260.727 219)">Eth</text><text font-family="Calibri,Calibri_MSFontService,sans-serif" font-weight="400" font-size="13" transform="translate(278.727 219)">1</text><path d="M570.5 184.5C570.5 172.902 610.347 163.5 659.5 163.5 708.653 163.5 748.5 172.902 748.5 184.5 748.5 196.098 708.653 205.5 659.5 205.5 610.347 205.5 570.5 196.098 570.5 184.5Z" stroke="#000000" stroke-linejoin="round" stroke-miterlimit="10" fill="#99CCFF" fill-rule="evenodd"/><text font-family="Calibri,Calibri_MSFontService,sans-serif" font-weight="400" font-size="13" transform="translate(626.395 188)">PCIeDevices</text><path d="M0.224899-1.31423 2.16429-0.982348C2.29436-0.96009 2.42039-0.91865 2.53829-0.859376L4.46251 0.108022C4.55131 0.152665 4.6348 0.207071 4.71151 0.270275L6.60538 1.83082C6.66116 1.87679 6.71308 1.92718 6.76069 1.98156L8.60905 4.09289 10.4949 6.83935 12.2713 10.0299 13.9366 13.6271 15.4832 17.5932 18.1668 26.4467 20.2387 36.3329 21.5714 46.89 22.0458 57.7887 22.511 68.5784 23.8167 78.9201 25.842 88.5865 28.4629 97.2291 29.9439 101.022 31.5326 104.457 33.1999 107.455 34.923 109.97 34.6637 109.687 36.5538 111.227 34.8697 113.294 32.9796 111.755C32.88 111.674 32.7927 111.579 32.7203 111.473L30.868 108.748 29.1117 105.575 27.4588 101.99 25.9106 98.0016 23.2317 89.1322 21.1709 79.253 19.8469 68.6932 19.3816 57.9036 18.9255 47.2229 17.6285 36.8786 15.6144 27.2191 12.9982 18.5606 11.5156 14.7452 9.93938 11.3235 8.29216 8.34243 6.60262 5.84941 4.75427 3.73809 4.90958 3.88883 3.01571 2.32828 3.26471 2.49054 1.34049 1.52314 1.71449 1.64611-0.224899 1.31423ZM36.6276 108.145 41.4274 115.692 32.5097 115.004Z" transform="matrix(1.83697e-16 1 1 -1.83697e-16 543.5 121.5)"/><path d="M628.5 216C628.5 207.44 642.379 200.5 659.5 200.5 676.621 200.5 690.5 207.44 690.5 216 690.5 224.56 676.621 231.5 659.5 231.5 642.379 231.5 628.5 224.56 628.5 216Z" stroke="#000000" stroke-linejoin="round" stroke-miterlimit="10" fill="#FFFFFF" fill-rule="evenodd"/><text font-family="Calibri,Calibri_MSFontService,sans-serif" font-weight="400" font-size="13" transform="translate(648.145 219)">PD</text><text font-family="Calibri,Calibri_MSFontService,sans-serif" font-weight="400" font-size="13" transform="translate(663.145 219)">1</text><path d="M591.5 264C591.5 256.544 621.945 250.5 659.5 250.5 697.055 250.5 727.5 256.544 727.5 264 727.5 271.456 697.055 277.5 659.5 277.5 621.945 277.5 591.5 271.456 591.5 264Z" stroke="#000000" stroke-linejoin="round" stroke-miterlimit="10" fill="#99CCFF" fill-rule="evenodd"/><text font-family="Calibri,Calibri_MSFontService,sans-serif" font-weight="400" font-size="13" transform="translate(620.811 268)">PCIeFunctions</text><path d="M660.833 231.5 660.833 235.126 660.833 238.289 660.833 240.526 660.833 241.153 660.833 241.375 660.833 241.597 660.833 242.224 660.833 244.583 658.167 244.583 658.167 242.224 658.167 241.597 658.167 241.375 658.167 241.153 658.167 240.526 658.167 238.289 658.167 235.126 658.167 231.5ZM663.5 243.25 659.5 251.25 655.5 243.25Z"/><path d="M628.5 288C628.5 279.44 642.379 272.5 659.5 272.5 676.621 272.5 690.5 279.44 690.5 288 690.5 296.56 676.621 303.5 659.5 303.5 642.379 303.5 628.5 296.56 628.5 288Z" stroke="#000000" stroke-linejoin="round" stroke-miterlimit="10" fill="#FFFFFF" fill-rule="evenodd"/><text font-family="Calibri,Calibri_MSFontService,sans-serif" font-weight="400" font-size="13" transform="translate(649.145 292)">PF</text><text font-family="Calibri,Calibri_MSFontService,sans-serif" font-weight="400" font-size="13" transform="translate(662.145 292)">1</text><path d="M637.512 306.381 636.719 308.911C636.684 309.024 636.634 309.131 636.57 309.23L633.747 313.648C633.709 313.707 633.667 313.762 633.621 313.814L631.783 315.889 629.787 314.121 631.625 312.046 631.5 312.212 634.323 307.794 634.174 308.114 634.967 305.584ZM625.921 321.554 624.945 322.413 619.258 326.489 617.014 327.831 615.649 325.54 617.706 324.32 623.184 320.41 624.16 319.552ZM609.949 331.774 605.693 333.91 600.181 336.254 599.138 333.799 604.496 331.527 608.752 329.39ZM592.628 339.108 589.703 340.155 582.389 342.337 581.628 339.781 588.805 337.644 591.729 336.597ZM574.567 344.312 571.888 344.961 564.049 346.443 563.554 343.823 571.26 342.369 573.939 341.72ZM556.068 347.615 552.848 348.053 545.387 348.675 545.166 346.018 552.488 345.411 555.708 344.972ZM537.324 349.033 533.186 349.15 526.581 348.936 526.669 346.27 533.111 346.485 537.249 346.367ZM518.586 348.673 513.585 348.509 507.864 347.963 508.119 345.309 513.673 345.844 518.673 346.008ZM499.901 347.2 494.596 346.692 489.25 345.928 489.628 343.289 494.85 344.037 500.155 344.546ZM481.31 344.655 476.812 343.863 470.8 342.592 471.352 339.983 477.274 341.237 481.772 342.028ZM462.973 340.717 460.878 340.192 453.785 338.09 452.622 337.683 453.507 335.167 454.543 335.534 461.527 337.605 463.621 338.131ZM445.052 334.859 441.714 333.448 436.878 330.94 435.338 329.923 436.818 327.704 438.108 328.574 442.752 330.992 446.09 332.403ZM632.038 306.344 637.797 299.5 639.817 308.213ZM429.105 328.202 428.5 319.278 436.002 324.148Z"/><path d="M-5.9068 3.263-7.48245 3.82832-7.13547 3.64204-9.68216 5.54185-12.0206 7.79368-13.484 9.52741-15.5164 7.80102-13.8644 5.86714-11.2767 3.40441-8.72998 1.5046C-8.62417 1.42566-8.50725 1.3629-8.383 1.31832L-6.80735 0.752997ZM-17.8713 15.9346-18.4757 16.9486-22.0624 24.7053-22.2469 25.3155-24.7866 24.5025-24.4819 23.5841-20.7663 15.5832-20.1619 14.5692ZM-24.6859 32.9346-24.8172 33.345-26.5894 42.5944-26.6117 43.0878-29.2725 42.9121-29.2079 42.09-27.3569 32.532-27.2256 32.1217ZM-27.1387 51.0704-27.2093 52.1388-27.2187 51.8701-26.5516 56.7435-26.6355 56.4268-24.8904 60.7662-27.3645 61.7612-29.1096 57.4218C-29.1505 57.3201-29.1787 57.2138-29.1936 57.1052L-29.8607 52.2317C-29.8729 52.1428-29.876 52.0527-29.8701 51.9631L-29.7996 50.8947ZM-20.6159 66.9227-17.5629 70.264-13.0101 74.1343-14.7408 76.1631-19.5315 72.0628-22.5845 68.7215ZM-6.58936 78.6738-6.31878 78.8615 0.642374 82.8753 2.52992 83.7901 1.36303 86.1879-0.690962 85.1846-7.83846 81.0528-8.10904 80.8651ZM9.68567 87.1719 16.8063 90.104 19.5378 91.0498 18.6634 93.5691 15.7909 92.5698 8.67031 89.6377ZM27.0498 93.5845 35.3762 95.9905 37.2576 96.4307 36.6478 99.0267 34.6359 98.5524 26.3095 96.1464ZM45.0456 98.2601 45.346 98.3307 55.47 100.183 54.9897 102.806 44.7362 100.927 44.4358 100.856ZM63.334 101.229 66.2225 101.611 73.8831 102.226 73.6689 104.885 65.8733 104.255 62.9849 103.873ZM-8.83329-1.40465 0 0-6.42369 6.22384ZM79.8487 99.884 87.7361 104.102 79.6294 107.881Z" transform="matrix(-6.12323e-17 -1 -1 6.12323e-17 377.602 319.236)"/><path d="M477.5 379C477.5 370.44 503.02 363.5 534.5 363.5 565.98 363.5 591.5 370.44 591.5 379 591.5 387.56 565.98 394.5 534.5 394.5 503.02 394.5 477.5 387.56 477.5 379Z" stroke="#000000" stroke-linejoin="round" stroke-miterlimit="10" fill="#FFFFFF" fill-rule="evenodd"/><text font-family="Calibri,Calibri_MSFontService,sans-serif" font-weight="400" font-size="13" transform="translate(504.458 382)">Pt1Metrics</text><path d="M319.5 379C319.5 370.44 350.169 363.5 388 363.5 425.832 363.5 456.5 370.44 456.5 379 456.5 387.56 425.832 394.5 388 394.5 350.169 394.5 319.5 387.56 319.5 379Z" stroke="#000000" stroke-linejoin="round" stroke-miterlimit="10" fill="#FFFFFF" fill-rule="evenodd"/><text font-family="Calibri,Calibri_MSFontService,sans-serif" font-weight="400" font-size="13" transform="translate(352.22 382)">NDF1Metrics</text><path d="M406.5 413C406.5 404.44 433.363 397.5 466.5 397.5 499.637 397.5 526.5 404.44 526.5 413 526.5 421.56 499.637 428.5 466.5 428.5 433.363 428.5 406.5 421.56 406.5 413Z" stroke="#000000" stroke-linejoin="round" stroke-miterlimit="10" fill="#FFFFFF" fill-rule="evenodd"/><text font-family="Calibri,Calibri_MSFontService,sans-serif" font-weight="400" font-size="13" transform="translate(433.627 416)">NA1Metrics</text><path d="M0.00100146-0.833333 11.0058-0.820108 16.0707-0.804928 20.6084-0.785241 24.444-0.761949 27.4023-0.735949 29.3096-0.708112 30.0061-0.678773 30.6793-0.650068 32.5584-0.622941 35.5096-0.597012 39.3414-0.573751 43.8765-0.554088 48.9388-0.538928 53.2754-0.533724 53.2734 1.13294 48.9338 1.12773 43.8693 1.11256 39.3313 1.09288 35.4949 1.06959 32.534 1.04355 30.6083 1.01509 29.9351 0.986384 29.2853 0.958377 27.3877 0.930653 24.4339 0.904686 20.6012 0.88141 16.0657 0.861731 11.0038 0.846558-0.00100146 0.833333ZM51.9459-3.70199 59.9411 0.307612 51.9363 4.29801Z" transform="matrix(1.83697e-16 1 1 -1.83697e-16 534 303)"/><path d="M403.794 323.072 403.151 330.446 402.397 333.944 401.421 337.056 400.256 339.711C400.239 339.75 400.219 339.788 400.196 339.823L398.932 341.804C398.895 341.862 398.851 341.915 398.801 341.962L397.449 343.237C397.359 343.322 397.251 343.386 397.134 343.424L395.738 343.875 394.343 344.326 394.658 344.139 393.306 345.414 393.437 345.256 392.173 347.236 392.233 347.124 391.101 349.693 390.176 352.647 389.463 356.674 387.822 356.381 388.586 352.147 389.576 349.021 390.708 346.452C390.725 346.413 390.745 346.376 390.768 346.34L392.032 344.359C392.069 344.301 392.113 344.248 392.163 344.201L393.515 342.926C393.605 342.842 393.712 342.778 393.83 342.74L395.226 342.289 396.621 341.838 396.306 342.024 397.657 340.75 397.527 340.908 398.791 338.927 398.731 339.039 399.831 336.556 400.769 333.589 401.491 330.301 402.134 322.928ZM392.753 355.586 388 363.163 384.79 354.815Z"/></g></svg>